G04*
G04 #@! TF.GenerationSoftware,Altium Limited,Altium Designer,20.2.6 (244)*
G04*
G04 Layer_Color=65535*
%FSAX24Y24*%
%MOIN*%
G70*
G04*
G04 #@! TF.SameCoordinates,4ACB88D7-B294-410B-95FA-DE5AC106DB3D*
G04*
G04*
G04 #@! TF.FilePolarity,Positive*
G04*
G01*
G75*
%ADD10C,0.0079*%
%ADD11C,0.0100*%
%ADD12R,0.1772X0.0315*%
D10*
X237889Y127990D02*
Y130265D01*
Y127990D02*
X238914Y126965D01*
X237889Y130265D02*
X258789D01*
Y128190D02*
Y130265D01*
X238914Y126965D02*
X257564D01*
X258789Y128190D01*
Y130843D02*
Y134365D01*
X230695D02*
X258789D01*
X230695Y130843D02*
X258789D01*
X230695D02*
Y134365D01*
D11*
X238439Y130115D02*
X238239D01*
X238339D01*
Y129615D01*
X238239Y129515D01*
X238139D01*
X238039Y129615D01*
X239039Y129515D02*
X238639D01*
X239039Y129915D01*
Y130015D01*
X238939Y130115D01*
X238739D01*
X238639Y130015D01*
X231239Y131615D02*
X231039D01*
X231139D01*
Y131115D01*
X231039Y131015D01*
X230939D01*
X230839Y131115D01*
X231439Y131015D02*
X231639D01*
X231539D01*
Y131615D01*
X231439Y131515D01*
D12*
X244742Y134229D02*
D03*
M02*
