M48
;Layer_Color=9474304
;FILE_FORMAT=2:4
INCH
;TYPE=PLATED
T1F00S00C0.0320
T2F00S00C0.0433
;TYPE=NON_PLATED
T3F00S00C0.0750
%
T01
X249089Y127490
X248089
X247089
X246089
X245089
X244089
X243089
X242089
X241089
X240089
X240589Y128240
X241589
X242589
X243589
X244589
X245589
X246589
X247589
X248589
X249589
X249089Y128990
X248089
X247089
X246089
X245089
X244089
X243089
X242089
X241089
X240089
X240589Y129740
X241589
X242589
X243589
X244589
X245589
X246589
X247589
X248589
X249589
X250589
X251589
X252589
X253589
X254589
X255589
X256589
X256089Y128990
X255089
X254089
X253089
X252089
X251089
X250089
X250589Y128240
X251589
X252589
X253589
X254589
X255589
X256589
X256089Y127490
X255089
X254089
X253089
X252089
X251089
X250089
T02
X233742Y132115
Y133115
X232742
Y132115
X234742
Y133115
X235742Y133115
Y132115
X236742Y132115
Y133115
X237742
X238742
Y132115
X237742
X239742Y132115
Y133115
X240742Y133115
Y132115
X241742
Y133115
X242742
X243742
Y132115
X242742
X244742Y132115
Y133115
X245742Y133115
X246742
Y132115
X247742
Y133115
X248742
Y132115
X249742Y132115
Y133115
X245742Y132115
X250742
X251742
Y133115
X252742
Y132115
X253742Y132115
Y133115
X254742Y133115
X255742
X256742
Y132115
X255742
X254742
X250742Y133115
T03
X239089Y128615
M30
