G04*
G04 #@! TF.GenerationSoftware,Altium Limited,Altium Designer,20.2.6 (244)*
G04*
G04 Layer_Physical_Order=1*
G04 Layer_Color=255*
%FSAX24Y24*%
%MOIN*%
G70*
G04*
G04 #@! TF.SameCoordinates,4ACB88D7-B294-410B-95FA-DE5AC106DB3D*
G04*
G04*
G04 #@! TF.FilePolarity,Positive*
G04*
G01*
G75*
%ADD18C,0.0080*%
%ADD19C,0.0500*%
%ADD20R,0.0500X0.0500*%
%ADD21C,0.0630*%
%ADD22R,0.0630X0.0630*%
D18*
X237739Y130905D02*
X238429Y130215D01*
X233177Y131974D02*
X234246Y130905D01*
X237739D01*
X238429Y130215D02*
X241839D01*
X242742Y133115D02*
X243192Y132665D01*
X244889D02*
X245239Y132315D01*
X243192Y132665D02*
X244889D01*
X235239Y131915D02*
X235889Y131265D01*
X237939D02*
X238669Y130535D01*
X235889Y131265D02*
X237939D01*
X245239Y131865D02*
Y132315D01*
Y131865D02*
X247089Y130015D01*
Y128990D02*
Y130015D01*
X249239Y131365D02*
Y132618D01*
X250089Y128990D02*
Y130515D01*
X249239Y131365D02*
X250089Y130515D01*
X251289Y131765D02*
X251589Y131465D01*
X251289Y131765D02*
Y132662D01*
X251742Y133115D01*
X243089Y128990D02*
Y129865D01*
X238669Y130535D02*
X242419D01*
X243089Y129865D01*
X234239Y131865D02*
X235019Y131085D01*
X237819D02*
X238529Y130375D01*
X236239Y131915D02*
X236689Y131465D01*
X235019Y131085D02*
X237819D01*
X236689Y131465D02*
X238039D01*
X238809Y130695D01*
X244509Y131495D02*
X246089Y129915D01*
X241509Y131495D02*
X244509D01*
X242489Y131665D02*
X244664D01*
X246589Y129740D01*
X252089Y131465D02*
X252239Y131615D01*
Y132612D01*
X252089Y128990D02*
Y131465D01*
X252239Y132612D02*
X252742Y133115D01*
X238529Y130375D02*
X241954D01*
X239879Y131175D02*
X243729D01*
X245089Y129815D01*
X241239Y131765D02*
X241509Y131495D01*
X241954Y130375D02*
X242589Y129740D01*
X242634Y130695D02*
X243589Y129740D01*
X239089Y131015D02*
X243314D01*
X241839Y130215D02*
X242089Y129965D01*
X243994Y131335D02*
X245589Y129740D01*
X240819Y131335D02*
X243994D01*
X239239Y131815D02*
X239879Y131175D01*
X238149Y131655D02*
X238949Y130855D01*
X240239Y131915D02*
X240819Y131335D01*
X238949Y130855D02*
X243149D01*
X244089Y129915D01*
X238809Y130695D02*
X242634D01*
X243314Y131015D02*
X244589Y129740D01*
X238239Y131865D02*
X239089Y131015D01*
X242089Y128990D02*
Y129965D01*
X242242Y131912D02*
X242489Y131665D01*
X241742Y133115D02*
X242242Y132615D01*
Y131912D02*
Y132615D01*
X237446Y131655D02*
X238149D01*
X237239Y131862D02*
X237446Y131655D01*
X232742Y133043D02*
Y133115D01*
Y133043D02*
X233177Y132608D01*
Y131974D02*
Y132608D01*
X234239Y131865D02*
Y132618D01*
X235239Y131915D02*
Y132618D01*
X238239Y131865D02*
Y132618D01*
X236239Y131915D02*
Y132618D01*
X237239Y131862D02*
Y132618D01*
X233742Y133115D02*
X234239Y132618D01*
X240742Y133115D02*
X241239Y132618D01*
Y131765D02*
Y132618D01*
X246089Y128990D02*
Y129915D01*
X239742Y133115D02*
X240239Y132618D01*
Y131915D02*
Y132618D01*
X238742Y133115D02*
X239239Y132618D01*
Y131815D02*
Y132618D01*
X245089Y128990D02*
Y129815D01*
X237742Y133115D02*
X238239Y132618D01*
X236742Y133115D02*
X237239Y132618D01*
X244089Y128990D02*
Y129915D01*
X235742Y133115D02*
X236239Y132618D01*
X234742Y133115D02*
X235239Y132618D01*
X251589Y129740D02*
Y131465D01*
X254239Y132612D02*
X254742Y133115D01*
X254239Y131665D02*
Y132612D01*
X253089Y128990D02*
Y130515D01*
X254239Y131665D01*
X248742Y133115D02*
X249239Y132618D01*
D19*
X256089Y127490D02*
D03*
X252089D02*
D03*
X248089D02*
D03*
X244089D02*
D03*
X240089D02*
D03*
X256089Y128990D02*
D03*
X254589Y128240D02*
D03*
X252089Y128990D02*
D03*
X250589Y128240D02*
D03*
X248089Y128990D02*
D03*
X246589Y128240D02*
D03*
X244089Y128990D02*
D03*
X242589Y128240D02*
D03*
X240089Y128990D02*
D03*
X254589Y129740D02*
D03*
X250589D02*
D03*
X246589D02*
D03*
X242589D02*
D03*
X254089Y127490D02*
D03*
X253089D02*
D03*
X251089D02*
D03*
X250089D02*
D03*
X246089D02*
D03*
X247089D02*
D03*
X245089D02*
D03*
X243089D02*
D03*
X242089D02*
D03*
X241089D02*
D03*
X256589Y128240D02*
D03*
X253589D02*
D03*
X252589D02*
D03*
X254089Y128990D02*
D03*
X253089D02*
D03*
X249589Y128240D02*
D03*
X251589D02*
D03*
X251089Y128990D02*
D03*
X250089D02*
D03*
X247589Y128240D02*
D03*
X248589D02*
D03*
X247089Y128990D02*
D03*
X246089D02*
D03*
X244589Y128240D02*
D03*
X243589D02*
D03*
X243089Y128990D02*
D03*
X245089D02*
D03*
X241589Y128240D02*
D03*
X240589D02*
D03*
X241089Y128990D02*
D03*
X242089D02*
D03*
X252589Y129740D02*
D03*
X253589D02*
D03*
X249589D02*
D03*
X251589D02*
D03*
X248589D02*
D03*
X247589D02*
D03*
X244589D02*
D03*
X243589D02*
D03*
X240589D02*
D03*
X241589D02*
D03*
X249089Y127490D02*
D03*
X255089D02*
D03*
X255589Y128240D02*
D03*
X245589D02*
D03*
X255089Y128990D02*
D03*
X249089D02*
D03*
X255589Y129740D02*
D03*
X245589D02*
D03*
D20*
X256589D02*
D03*
D21*
X236742Y133115D02*
D03*
Y132115D02*
D03*
X235742Y133115D02*
D03*
X234742Y133115D02*
D03*
X233742D02*
D03*
X232742D02*
D03*
X235742Y132115D02*
D03*
X234742Y132115D02*
D03*
X233742D02*
D03*
X232742D02*
D03*
X247742D02*
D03*
X246742D02*
D03*
Y133115D02*
D03*
X247742D02*
D03*
X248742Y132115D02*
D03*
X249742Y132115D02*
D03*
X248742Y133115D02*
D03*
X249742Y133115D02*
D03*
X256742Y132115D02*
D03*
X255742Y133115D02*
D03*
Y132115D02*
D03*
X254742Y133115D02*
D03*
Y132115D02*
D03*
X253742Y133115D02*
D03*
Y132115D02*
D03*
X252742Y133115D02*
D03*
X251742D02*
D03*
X252742Y132115D02*
D03*
X251742D02*
D03*
X250742Y133115D02*
D03*
Y132115D02*
D03*
X245742Y133115D02*
D03*
Y132115D02*
D03*
X244742Y133115D02*
D03*
X243742Y133115D02*
D03*
X242742D02*
D03*
X241742D02*
D03*
X244742Y132115D02*
D03*
X243742Y132115D02*
D03*
X242742D02*
D03*
X241742D02*
D03*
X240742Y133115D02*
D03*
X239742Y133115D02*
D03*
X238742Y133115D02*
D03*
X237742D02*
D03*
X240742Y132115D02*
D03*
X239742Y132115D02*
D03*
X238742Y132115D02*
D03*
X237742D02*
D03*
D22*
X256742Y133115D02*
D03*
M02*
