G04*
G04 #@! TF.GenerationSoftware,Altium Limited,Altium Designer,20.2.6 (244)*
G04*
G04 Layer_Color=32896*
%FSAX24Y24*%
%MOIN*%
G70*
G04*
G04 #@! TF.SameCoordinates,4ACB88D7-B294-410B-95FA-DE5AC106DB3D*
G04*
G04*
G04 #@! TF.FilePolarity,Positive*
G04*
G01*
G75*
%ADD18C,0.0080*%
D18*
X239006Y131332D02*
Y131132D01*
X238940Y131065D01*
X238873Y131132D01*
X238807Y131065D01*
X238740Y131132D01*
Y131332D01*
X238607D02*
Y131132D01*
X238540Y131065D01*
X238473Y131132D01*
X238407Y131065D01*
X238340Y131132D01*
Y131332D01*
X238207D02*
Y131132D01*
X238140Y131065D01*
X238073Y131132D01*
X238007Y131065D01*
X237940Y131132D01*
Y131332D01*
X237807Y131065D02*
Y131132D01*
X237740D01*
Y131065D01*
X237807D01*
X237474Y130932D02*
Y131332D01*
X237274D01*
X237207Y131265D01*
Y131132D01*
X237274Y131065D01*
X237474D01*
X237074Y131332D02*
Y131065D01*
Y131198D01*
X237007Y131265D01*
X236940Y131332D01*
X236874D01*
X236607Y131065D02*
X236474D01*
X236407Y131132D01*
Y131265D01*
X236474Y131332D01*
X236607D01*
X236674Y131265D01*
Y131132D01*
X236607Y131065D01*
X236274Y130932D02*
X236207D01*
X236141Y130998D01*
Y131332D01*
X235674Y131065D02*
X235808D01*
X235874Y131132D01*
Y131265D01*
X235808Y131332D01*
X235674D01*
X235608Y131265D01*
Y131198D01*
X235874D01*
X235208Y131332D02*
X235408D01*
X235474Y131265D01*
Y131132D01*
X235408Y131065D01*
X235208D01*
X235008Y131398D02*
Y131332D01*
X235074D01*
X234941D01*
X235008D01*
Y131132D01*
X234941Y131065D01*
X234741Y131332D02*
X234608Y131065D01*
X234475Y131332D01*
X234341Y131465D02*
Y131065D01*
X234141D01*
X234075Y131132D01*
Y131198D01*
Y131265D01*
X234141Y131332D01*
X234341D01*
X233941Y131065D02*
Y131132D01*
X233875D01*
Y131065D01*
X233941D01*
X233342Y131332D02*
X233542D01*
X233608Y131265D01*
Y131132D01*
X233542Y131065D01*
X233342D01*
X233142D02*
X233008D01*
X232942Y131132D01*
Y131265D01*
X233008Y131332D01*
X233142D01*
X233208Y131265D01*
Y131132D01*
X233142Y131065D01*
X232808D02*
Y131332D01*
X232742D01*
X232675Y131265D01*
Y131065D01*
Y131265D01*
X232609Y131332D01*
X232542Y131265D01*
Y131065D01*
X244138Y134215D02*
X244405D01*
Y134015D01*
X244271Y134082D01*
X244205D01*
X244138Y134015D01*
Y133882D01*
X244205Y133815D01*
X244338D01*
X244405Y133882D01*
X244005Y134148D02*
X243938Y134215D01*
X243805D01*
X243738Y134148D01*
Y133882D01*
X243805Y133815D01*
X243938D01*
X244005Y133882D01*
Y134148D01*
X243605Y133682D02*
Y134082D01*
X243405D01*
X243338Y134015D01*
Y133882D01*
X243405Y133815D01*
X243605D01*
X243205D02*
X243072D01*
X243138D01*
Y134082D01*
X243205D01*
X242872Y133815D02*
Y134082D01*
X242672D01*
X242605Y134015D01*
Y133815D01*
X242072D02*
Y134215D01*
X241939Y134082D01*
X241806Y134215D01*
Y133815D01*
X241206Y134148D02*
Y134082D01*
X241272D01*
X241139D01*
X241206D01*
Y133882D01*
X241139Y133815D01*
X240873D02*
X240739D01*
X240673Y133882D01*
Y134015D01*
X240739Y134082D01*
X240873D01*
X240939Y134015D01*
Y133882D01*
X240873Y133815D01*
X239873Y134215D02*
X240006Y134148D01*
X240139Y134015D01*
Y133882D01*
X240073Y133815D01*
X239940D01*
X239873Y133882D01*
Y133948D01*
X239940Y134015D01*
X240139D01*
X239740Y134148D02*
X239673Y134215D01*
X239540D01*
X239473Y134148D01*
Y134082D01*
X239540Y134015D01*
X239473Y133948D01*
Y133882D01*
X239540Y133815D01*
X239673D01*
X239740Y133882D01*
Y133948D01*
X239673Y134015D01*
X239740Y134082D01*
Y134148D01*
X239673Y134015D02*
X239540D01*
X239340Y133682D02*
Y134082D01*
X239140D01*
X239073Y134015D01*
Y133882D01*
X239140Y133815D01*
X239340D01*
X238940D02*
X238807D01*
X238873D01*
Y134082D01*
X238940D01*
X238607Y133815D02*
Y134082D01*
X238407D01*
X238340Y134015D01*
Y133815D01*
X237540Y134215D02*
X237807D01*
Y134015D01*
X237674D01*
X237807D01*
Y133815D01*
X236741Y134148D02*
X236807Y134215D01*
X236940D01*
X237007Y134148D01*
Y134082D01*
X236940Y134015D01*
X236807D01*
X236741Y133948D01*
Y133882D01*
X236807Y133815D01*
X236940D01*
X237007Y133882D01*
X236341Y134148D02*
X236407Y134215D01*
X236541D01*
X236607Y134148D01*
Y133882D01*
X236541Y133815D01*
X236407D01*
X236341Y133882D01*
X235941Y134148D02*
X236007Y134215D01*
X236141D01*
X236207Y134148D01*
Y134082D01*
X236141Y134015D01*
X236007D01*
X235941Y133948D01*
Y133882D01*
X236007Y133815D01*
X236141D01*
X236207Y133882D01*
X235808Y134215D02*
X235674D01*
X235741D01*
Y133815D01*
X235808D01*
X235674D01*
X235008Y134082D02*
X234874D01*
X234808Y134015D01*
Y133815D01*
X235008D01*
X235074Y133882D01*
X235008Y133948D01*
X234808D01*
X234408Y134215D02*
Y133815D01*
X234608D01*
X234675Y133882D01*
Y134015D01*
X234608Y134082D01*
X234408D01*
X234208D02*
X234075D01*
X234008Y134015D01*
Y133815D01*
X234208D01*
X234275Y133882D01*
X234208Y133948D01*
X234008D01*
X233875Y133682D02*
Y134082D01*
X233675D01*
X233608Y134015D01*
Y133882D01*
X233675Y133815D01*
X233875D01*
X233408Y134148D02*
Y134082D01*
X233475D01*
X233342D01*
X233408D01*
Y133882D01*
X233342Y133815D01*
X232942D02*
X233075D01*
X233142Y133882D01*
Y134015D01*
X233075Y134082D01*
X232942D01*
X232875Y134015D01*
Y133948D01*
X233142D01*
X232742Y134082D02*
Y133815D01*
Y133948D01*
X232675Y134015D01*
X232609Y134082D01*
X232542D01*
M02*
