G04*
G04 #@! TF.GenerationSoftware,Altium Limited,Altium Designer,20.2.6 (244)*
G04*
G04 Layer_Color=65535*
%FSAX24Y24*%
%MOIN*%
G70*
G04*
G04 #@! TF.SameCoordinates,79835426-5826-47FF-A966-97B9D47979B7*
G04*
G04*
G04 #@! TF.FilePolarity,Positive*
G04*
G01*
G75*
%ADD10C,0.0098*%
%ADD11C,0.0079*%
%ADD12C,0.0100*%
%ADD13C,0.0080*%
%ADD14R,0.1772X0.0315*%
D10*
X232538Y131152D02*
G03*
X232538Y131152I-000049J000000D01*
G01*
X255738D02*
G03*
X255738Y131152I-000049J000000D01*
G01*
D11*
X253789Y130865D02*
Y134065D01*
Y130865D02*
X276589D01*
X253789Y134065D02*
X276589D01*
Y130865D02*
Y134065D01*
X253389Y130865D02*
Y134065D01*
X230589D02*
X253389D01*
X230589Y130865D02*
X253389D01*
X230589D02*
Y134065D01*
D12*
X235589Y126165D02*
Y127965D01*
X236189Y128865D02*
X235989D01*
X236089D01*
Y128365D01*
X235989Y128265D01*
X235889D01*
X235789Y128365D01*
X236389Y128265D02*
X236589D01*
X236489D01*
Y128865D01*
X236389Y128765D01*
X255289Y130465D02*
X255089D01*
X255189D01*
Y129965D01*
X255089Y129865D01*
X254989D01*
X254889Y129965D01*
X255489Y130365D02*
X255589Y130465D01*
X255789D01*
X255889Y130365D01*
Y130265D01*
X255789Y130165D01*
X255689D01*
X255789D01*
X255889Y130065D01*
Y129965D01*
X255789Y129865D01*
X255589D01*
X255489Y129965D01*
X251689Y130465D02*
X251489D01*
X251589D01*
Y129965D01*
X251489Y129865D01*
X251389D01*
X251289Y129965D01*
X252289Y129865D02*
X251889D01*
X252289Y130265D01*
Y130365D01*
X252189Y130465D01*
X251989D01*
X251889Y130365D01*
D13*
X258156Y129098D02*
X258089Y129165D01*
X257956D01*
X257889Y129098D01*
Y128832D01*
X257956Y128765D01*
X258089D01*
X258156Y128832D01*
X258356Y129032D02*
X258489D01*
X258556Y128965D01*
Y128765D01*
X258356D01*
X258289Y128832D01*
X258356Y128898D01*
X258556D01*
X258689Y129032D02*
Y128765D01*
Y128898D01*
X258755Y128965D01*
X258822Y129032D01*
X258889D01*
X259355Y129165D02*
Y128765D01*
X259155D01*
X259089Y128832D01*
Y128965D01*
X259155Y129032D01*
X259355D01*
X259489D02*
X259555D01*
Y128965D01*
X259489D01*
Y129032D01*
Y128832D02*
X259555D01*
Y128765D01*
X259489D01*
Y128832D01*
X260488Y129165D02*
X260355D01*
X260422D01*
Y128832D01*
X260355Y128765D01*
X260288D01*
X260222Y128832D01*
X260622Y128765D02*
X260755D01*
X260688D01*
Y129165D01*
X260622Y129098D01*
X261488Y128765D02*
X261355Y128898D01*
Y129032D01*
X261488Y129165D01*
X261688D02*
Y128765D01*
Y128965D01*
X261754Y129032D01*
X261888D01*
X261954Y128965D01*
Y128765D01*
X262288D02*
X262154D01*
X262088Y128832D01*
Y128965D01*
X262154Y129032D01*
X262288D01*
X262354Y128965D01*
Y128898D01*
X262088D01*
X262554Y129032D02*
X262688D01*
X262754Y128965D01*
Y128765D01*
X262554D01*
X262488Y128832D01*
X262554Y128898D01*
X262754D01*
X263154Y129165D02*
Y128765D01*
X262954D01*
X262887Y128832D01*
Y128965D01*
X262954Y129032D01*
X263154D01*
X263487Y128765D02*
X263354D01*
X263287Y128832D01*
Y128965D01*
X263354Y129032D01*
X263487D01*
X263554Y128965D01*
Y128898D01*
X263287D01*
X263687Y129032D02*
Y128765D01*
Y128898D01*
X263754Y128965D01*
X263820Y129032D01*
X263887D01*
X264087Y128765D02*
X264220Y128898D01*
Y129032D01*
X264087Y129165D01*
X264487Y128698D02*
X264554Y128765D01*
Y128832D01*
X264487D01*
Y128765D01*
X264554D01*
X264487Y128698D01*
X264420Y128632D01*
X265487Y129165D02*
X265353D01*
X265420D01*
Y128832D01*
X265353Y128765D01*
X265287D01*
X265220Y128832D01*
X265886Y128765D02*
X265620D01*
X265886Y129032D01*
Y129098D01*
X265820Y129165D01*
X265687D01*
X265620Y129098D01*
X266086Y128698D02*
X266153Y128765D01*
Y128832D01*
X266086D01*
Y128765D01*
X266153D01*
X266086Y128698D01*
X266020Y128632D01*
X267086Y129165D02*
X266953D01*
X267019D01*
Y128832D01*
X266953Y128765D01*
X266886D01*
X266820Y128832D01*
X267219Y129098D02*
X267286Y129165D01*
X267419D01*
X267486Y129098D01*
Y129032D01*
X267419Y128965D01*
X267353D01*
X267419D01*
X267486Y128898D01*
Y128832D01*
X267419Y128765D01*
X267286D01*
X267219Y128832D01*
X268086Y129098D02*
Y129032D01*
X268019D01*
X268152D01*
X268086D01*
Y128832D01*
X268152Y128765D01*
X268352Y129165D02*
Y128765D01*
Y128965D01*
X268419Y129032D01*
X268552D01*
X268619Y128965D01*
Y128765D01*
X268752D02*
X268886D01*
X268819D01*
Y129032D01*
X268752D01*
X269085Y128765D02*
X269285D01*
X269352Y128832D01*
X269285Y128898D01*
X269152D01*
X269085Y128965D01*
X269152Y129032D01*
X269352D01*
X269885Y128765D02*
X270085D01*
X270152Y128832D01*
X270085Y128898D01*
X269952D01*
X269885Y128965D01*
X269952Y129032D01*
X270152D01*
X270285Y128765D02*
X270418D01*
X270352D01*
Y129032D01*
X270285D01*
X270885Y129165D02*
Y128765D01*
X270685D01*
X270618Y128832D01*
Y128965D01*
X270685Y129032D01*
X270885D01*
X271218Y128765D02*
X271085D01*
X271018Y128832D01*
Y128965D01*
X271085Y129032D01*
X271218D01*
X271285Y128965D01*
Y128898D01*
X271018D01*
X257889Y129915D02*
Y129515D01*
X258089D01*
X258156Y129582D01*
Y129648D01*
X258089Y129715D01*
X257889D01*
X258089D01*
X258156Y129782D01*
Y129848D01*
X258089Y129915D01*
X257889D01*
X258356Y129782D02*
X258489D01*
X258556Y129715D01*
Y129515D01*
X258356D01*
X258289Y129582D01*
X258356Y129648D01*
X258556D01*
X258955Y129782D02*
X258755D01*
X258689Y129715D01*
Y129582D01*
X258755Y129515D01*
X258955D01*
X259089D02*
Y129915D01*
Y129648D02*
X259289Y129782D01*
X259089Y129648D02*
X259289Y129515D01*
X259489Y129382D02*
Y129782D01*
X259688D01*
X259755Y129715D01*
Y129582D01*
X259688Y129515D01*
X259489D01*
X259888D02*
X260022D01*
X259955D01*
Y129915D01*
X259888D01*
X260288Y129782D02*
X260422D01*
X260488Y129715D01*
Y129515D01*
X260288D01*
X260222Y129582D01*
X260288Y129648D01*
X260488D01*
X260622Y129515D02*
Y129782D01*
X260821D01*
X260888Y129715D01*
Y129515D01*
X261221D02*
X261088D01*
X261021Y129582D01*
Y129715D01*
X261088Y129782D01*
X261221D01*
X261288Y129715D01*
Y129648D01*
X261021D01*
X261421Y129782D02*
X261488D01*
Y129715D01*
X261421D01*
Y129782D01*
Y129582D02*
X261488D01*
Y129515D01*
X261421D01*
Y129582D01*
X262421Y129915D02*
X262288D01*
X262354D01*
Y129582D01*
X262288Y129515D01*
X262221D01*
X262154Y129582D01*
X262554Y129515D02*
X262688D01*
X262621D01*
Y129915D01*
X262554Y129848D01*
X263421Y129515D02*
X263287Y129648D01*
Y129782D01*
X263421Y129915D01*
X263621Y129515D02*
X263820D01*
X263887Y129582D01*
X263820Y129648D01*
X263687D01*
X263621Y129715D01*
X263687Y129782D01*
X263887D01*
X264087Y129515D02*
X264220D01*
X264287Y129582D01*
Y129715D01*
X264220Y129782D01*
X264087D01*
X264020Y129715D01*
Y129582D01*
X264087Y129515D01*
X264687Y129782D02*
X264487D01*
X264420Y129715D01*
Y129582D01*
X264487Y129515D01*
X264687D01*
X264820D02*
Y129915D01*
Y129648D02*
X265020Y129782D01*
X264820Y129648D02*
X265020Y129515D01*
X265420D02*
X265287D01*
X265220Y129582D01*
Y129715D01*
X265287Y129782D01*
X265420D01*
X265487Y129715D01*
Y129648D01*
X265220D01*
X265687Y129848D02*
Y129782D01*
X265620D01*
X265753D01*
X265687D01*
Y129582D01*
X265753Y129515D01*
X265953D02*
X266086Y129648D01*
Y129782D01*
X265953Y129915D01*
X266753Y129848D02*
Y129782D01*
X266686D01*
X266820D01*
X266753D01*
Y129582D01*
X266820Y129515D01*
X267019Y129915D02*
Y129515D01*
Y129715D01*
X267086Y129782D01*
X267219D01*
X267286Y129715D01*
Y129515D01*
X267419D02*
X267553D01*
X267486D01*
Y129782D01*
X267419D01*
X267753Y129515D02*
X267952D01*
X268019Y129582D01*
X267952Y129648D01*
X267819D01*
X267753Y129715D01*
X267819Y129782D01*
X268019D01*
X268552Y129515D02*
X268752D01*
X268819Y129582D01*
X268752Y129648D01*
X268619D01*
X268552Y129715D01*
X268619Y129782D01*
X268819D01*
X268952Y129515D02*
X269085D01*
X269019D01*
Y129782D01*
X268952D01*
X269552Y129915D02*
Y129515D01*
X269352D01*
X269285Y129582D01*
Y129715D01*
X269352Y129782D01*
X269552D01*
X269885Y129515D02*
X269752D01*
X269685Y129582D01*
Y129715D01*
X269752Y129782D01*
X269885D01*
X269952Y129715D01*
Y129648D01*
X269685D01*
D14*
X265189Y131001D02*
D03*
X241989D02*
D03*
M02*
