G04*
G04 #@! TF.GenerationSoftware,Altium Limited,Altium Designer,20.2.6 (244)*
G04*
G04 Layer_Color=8388736*
%FSAX24Y24*%
%MOIN*%
G70*
G04*
G04 #@! TF.SameCoordinates,79835426-5826-47FF-A966-97B9D47979B7*
G04*
G04*
G04 #@! TF.FilePolarity,Negative*
G04*
G01*
G75*
%ADD15C,0.0730*%
%ADD16C,0.0710*%
%ADD17C,0.1880*%
D15*
X271089Y126565D02*
D03*
X270089D02*
D03*
X269089Y126565D02*
D03*
X268089Y126565D02*
D03*
X267089D02*
D03*
X271089Y127565D02*
D03*
X270089D02*
D03*
X269089Y127565D02*
D03*
X268089Y127565D02*
D03*
X267089D02*
D03*
X256089Y126565D02*
D03*
X255089Y126565D02*
D03*
X256089Y127565D02*
D03*
X255089Y127565D02*
D03*
X252089Y126565D02*
D03*
Y127565D02*
D03*
X250089Y126565D02*
D03*
Y127565D02*
D03*
X248089Y126565D02*
D03*
Y127565D02*
D03*
X245089Y126565D02*
D03*
Y127565D02*
D03*
X243089Y126565D02*
D03*
Y127565D02*
D03*
X241089Y126565D02*
D03*
Y127565D02*
D03*
X240089Y126565D02*
D03*
Y127565D02*
D03*
X237089Y126565D02*
D03*
Y127565D02*
D03*
X236089Y126565D02*
D03*
Y127565D02*
D03*
X238089Y127565D02*
D03*
Y126565D02*
D03*
X239089Y127565D02*
D03*
Y126565D02*
D03*
X242089Y127565D02*
D03*
Y126565D02*
D03*
X244089Y127565D02*
D03*
Y126565D02*
D03*
X246089Y127565D02*
D03*
Y126565D02*
D03*
X247089Y127565D02*
D03*
Y126565D02*
D03*
X249089Y127565D02*
D03*
Y126565D02*
D03*
X251089Y127565D02*
D03*
Y126565D02*
D03*
X253089Y127565D02*
D03*
X254089D02*
D03*
X253089Y126565D02*
D03*
X254089D02*
D03*
X257089Y127565D02*
D03*
X258089D02*
D03*
X259089D02*
D03*
X260089Y127565D02*
D03*
X261089Y127565D02*
D03*
X262089D02*
D03*
X263089D02*
D03*
X264089D02*
D03*
X265089Y127565D02*
D03*
X266089Y127565D02*
D03*
X257089Y126565D02*
D03*
X258089D02*
D03*
X259089D02*
D03*
X260089Y126565D02*
D03*
X261089Y126565D02*
D03*
X262089D02*
D03*
X263089D02*
D03*
X264089D02*
D03*
X265089Y126565D02*
D03*
X266089Y126565D02*
D03*
D16*
X241489Y131965D02*
D03*
X242489D02*
D03*
Y132965D02*
D03*
X241489D02*
D03*
X240489Y131965D02*
D03*
X239489Y131965D02*
D03*
X240489Y132965D02*
D03*
X239489Y132965D02*
D03*
X232489Y132965D02*
D03*
Y131965D02*
D03*
X233489Y132965D02*
D03*
Y131965D02*
D03*
X234489Y132965D02*
D03*
Y131965D02*
D03*
X235489Y132965D02*
D03*
Y131965D02*
D03*
X236489Y132965D02*
D03*
X237489D02*
D03*
X236489Y131965D02*
D03*
X237489D02*
D03*
X238489Y132965D02*
D03*
Y131965D02*
D03*
X243489Y132965D02*
D03*
Y131965D02*
D03*
X244489Y132965D02*
D03*
X245489Y132965D02*
D03*
X246489D02*
D03*
X247489D02*
D03*
X244489Y131965D02*
D03*
X245489Y131965D02*
D03*
X246489D02*
D03*
X247489D02*
D03*
X248489Y132965D02*
D03*
X249489Y132965D02*
D03*
X250489D02*
D03*
X251489D02*
D03*
X248489Y131965D02*
D03*
X249489Y131965D02*
D03*
X250489D02*
D03*
X251489D02*
D03*
X264689D02*
D03*
X265689D02*
D03*
Y132965D02*
D03*
X264689D02*
D03*
X263689Y131965D02*
D03*
X262689Y131965D02*
D03*
X263689Y132965D02*
D03*
X262689Y132965D02*
D03*
X255689Y132965D02*
D03*
Y131965D02*
D03*
X256689Y132965D02*
D03*
Y131965D02*
D03*
X257689Y132965D02*
D03*
Y131965D02*
D03*
X258689Y132965D02*
D03*
Y131965D02*
D03*
X259689Y132965D02*
D03*
X260689D02*
D03*
X259689Y131965D02*
D03*
X260689D02*
D03*
X261689Y132965D02*
D03*
Y131965D02*
D03*
X266689Y132965D02*
D03*
Y131965D02*
D03*
X267689Y132965D02*
D03*
X268689Y132965D02*
D03*
X269689D02*
D03*
X270689D02*
D03*
X267689Y131965D02*
D03*
X268689Y131965D02*
D03*
X269689D02*
D03*
X270689D02*
D03*
X271689Y132965D02*
D03*
X272689Y132965D02*
D03*
X273689D02*
D03*
X274689D02*
D03*
X271689Y131965D02*
D03*
X272689Y131965D02*
D03*
X273689D02*
D03*
X274689D02*
D03*
D17*
X253589Y129665D02*
D03*
M02*
