G04*
G04 #@! TF.GenerationSoftware,Altium Limited,Altium Designer,20.2.6 (244)*
G04*
G04 Layer_Physical_Order=1*
G04 Layer_Color=255*
%FSAX24Y24*%
%MOIN*%
G70*
G04*
G04 #@! TF.SameCoordinates,79835426-5826-47FF-A966-97B9D47979B7*
G04*
G04*
G04 #@! TF.FilePolarity,Positive*
G04*
G01*
G75*
%ADD12C,0.0100*%
%ADD18C,0.0650*%
%ADD19C,0.0630*%
%ADD20C,0.1800*%
D12*
X269589Y127065D02*
Y129565D01*
X271089Y131065D01*
X270589Y127065D02*
Y130165D01*
X270689Y131465D02*
X271189D01*
X269589Y127065D02*
Y129565D01*
X271089Y131065D01*
X271289Y130865D02*
X273589D01*
X267589Y127065D02*
Y128365D01*
X268589Y128965D02*
X270889Y131265D01*
X271089Y131065D02*
X272789D01*
X270589Y130165D02*
X271289Y130865D01*
X270589Y127065D02*
Y130165D01*
X270889Y131265D02*
X271989D01*
X268589Y127065D02*
Y128965D01*
X270589Y130165D02*
X271289Y130865D01*
X267589Y128365D02*
X270689Y131465D01*
X233789Y130965D02*
X235589D01*
X236089Y130465D01*
X237089Y127565D02*
Y129865D01*
X235989Y131765D02*
Y132465D01*
Y131765D02*
X239089Y128665D01*
X238089Y127565D02*
Y129265D01*
X236089Y127565D02*
Y130465D01*
X234539Y131165D02*
X235789D01*
X237089Y129865D01*
X239089Y127565D02*
Y128665D01*
X235289Y131415D02*
X235939D01*
X238089Y129265D01*
X251989Y129715D02*
X253089Y128615D01*
Y127565D02*
Y128615D01*
X251989Y129715D02*
Y132465D01*
X253589Y127815D02*
X255689Y129915D01*
X253589Y127065D02*
Y127815D01*
X255689Y129915D02*
Y131965D01*
X256689Y130115D02*
Y131965D01*
X254589Y127065D02*
Y128015D01*
X256689Y130115D01*
X273589Y130865D02*
X274689Y131965D01*
X272789Y131065D02*
X273689Y131965D01*
X271989Y131265D02*
X272689Y131965D01*
X263689Y130115D02*
Y131965D01*
X262689Y130115D02*
Y131965D01*
X261689Y130115D02*
Y131965D01*
X260689Y130115D02*
Y131965D01*
X259689Y130115D02*
Y131965D01*
X258689Y130115D02*
Y131965D01*
X257689Y130115D02*
Y131965D01*
X262589Y127865D02*
X266689Y131965D01*
X261589Y128015D02*
X263689Y130115D01*
X263589Y127865D02*
X267689Y131965D01*
X264589Y127865D02*
X268689Y131965D01*
X266589Y127865D02*
X270689Y131965D01*
X265589Y127865D02*
X269689Y131965D01*
X260589Y128015D02*
X262689Y130115D01*
X270589Y127065D02*
X271089Y126565D01*
X269589Y127065D02*
X270089Y126565D01*
X268589Y127065D02*
X269089Y126565D01*
X267589Y127065D02*
X268089Y126565D01*
X266589Y127065D02*
Y127865D01*
Y127065D02*
X267089Y126565D01*
X265589Y127065D02*
Y127865D01*
Y127065D02*
X266089Y126565D01*
X264589Y127065D02*
Y127865D01*
Y127065D02*
X265089Y126565D01*
X263589Y127065D02*
Y127865D01*
Y127065D02*
X264089Y126565D01*
X262589Y127065D02*
Y127865D01*
Y127065D02*
X263089Y126565D01*
X261589Y127065D02*
Y128015D01*
Y127065D02*
X262089Y126565D01*
X260589Y127065D02*
Y128015D01*
Y127065D02*
X261089Y126565D01*
X259589Y127065D02*
X260089Y126565D01*
X259589Y127065D02*
Y128015D01*
X261689Y130115D01*
X258589Y127065D02*
X259089Y126565D01*
X258589Y127065D02*
Y128015D01*
X260689Y130115D01*
X257589Y127065D02*
X258089Y126565D01*
X257589Y127065D02*
Y128015D01*
X259689Y130115D01*
X256589Y127065D02*
X257089Y126565D01*
X256589Y127065D02*
Y128015D01*
X258689Y130115D01*
X255589Y127065D02*
X256089Y126565D01*
X255589Y127065D02*
Y128015D01*
X257689Y130115D01*
X254589Y127065D02*
X255089Y126565D01*
X253589Y127065D02*
X254089Y126565D01*
X271189Y131465D02*
X271689Y131965D01*
X234989Y131715D02*
X235289Y131415D01*
X234989Y131715D02*
Y132465D01*
X232989Y131765D02*
Y132465D01*
Y131765D02*
X233789Y130965D01*
X233989Y131715D02*
X234539Y131165D01*
X233989Y131715D02*
Y132465D01*
X234489Y132965D02*
X234989Y132465D01*
X240089Y127565D02*
Y128615D01*
X240989Y131715D02*
Y132465D01*
X239989Y131715D02*
X243089Y128615D01*
X242089Y127565D02*
Y128615D01*
X241089Y127565D02*
Y128615D01*
X244089Y127565D02*
Y128615D01*
X239989Y131715D02*
Y132465D01*
X238989Y131715D02*
X242089Y128615D01*
X238989Y131715D02*
Y132465D01*
X237989Y131715D02*
X241089Y128615D01*
X237989Y131715D02*
Y132465D01*
X240989Y131715D02*
X244089Y128615D01*
X243089Y127565D02*
Y128615D01*
X236989Y131715D02*
X240089Y128615D01*
X236989Y131715D02*
Y132465D01*
X251089Y127565D02*
Y129015D01*
X245989Y130115D02*
X247089Y129015D01*
X246089Y127565D02*
Y129015D01*
X246989Y130115D02*
X248089Y129015D01*
X245089Y127565D02*
Y129015D01*
X243989Y130115D02*
X245089Y129015D01*
X250989Y130115D02*
X252089Y129015D01*
X247089Y127565D02*
Y129015D01*
X247989Y130115D02*
X249089Y129015D01*
X248089Y127565D02*
Y129015D01*
X252089Y127565D02*
Y129015D01*
X249989Y130115D02*
X251089Y129015D01*
X250089Y127565D02*
Y129015D01*
X248989Y130115D02*
X250089Y129015D01*
X244989Y130115D02*
X246089Y129015D01*
X249089Y127565D02*
Y129015D01*
X251489Y132965D02*
X251989Y132465D01*
X250989Y130115D02*
Y132465D01*
X250489Y132965D02*
X250989Y132465D01*
X249989Y130115D02*
Y132465D01*
X249489Y132965D02*
X249989Y132465D01*
X248989Y130115D02*
Y132465D01*
X248489Y132965D02*
X248989Y132465D01*
X247989Y130115D02*
Y132465D01*
X247489Y132965D02*
X247989Y132465D01*
X246989Y130115D02*
Y132465D01*
X246489Y132965D02*
X246989Y132465D01*
X245989Y130115D02*
Y132465D01*
X245489Y132965D02*
X245989Y132465D01*
X244489Y132965D02*
X244989Y132465D01*
Y130115D02*
Y132465D01*
X243989Y130115D02*
Y132465D01*
X243489Y132965D02*
X243989Y132465D01*
X240489Y132965D02*
X240989Y132465D01*
X239489Y132965D02*
X239989Y132465D01*
X238489Y132965D02*
X238989Y132465D01*
X237489Y132965D02*
X237989Y132465D01*
X236489Y132965D02*
X236989Y132465D01*
X235489Y132965D02*
X235989Y132465D01*
X233489Y132965D02*
X233989Y132465D01*
X232489Y132965D02*
X232989Y132465D01*
D18*
X271089Y126565D02*
D03*
X270089D02*
D03*
X269089Y126565D02*
D03*
X268089Y126565D02*
D03*
X267089D02*
D03*
X271089Y127565D02*
D03*
X270089D02*
D03*
X269089Y127565D02*
D03*
X268089Y127565D02*
D03*
X267089D02*
D03*
X256089Y126565D02*
D03*
X255089Y126565D02*
D03*
X256089Y127565D02*
D03*
X255089Y127565D02*
D03*
X252089Y126565D02*
D03*
Y127565D02*
D03*
X250089Y126565D02*
D03*
Y127565D02*
D03*
X248089Y126565D02*
D03*
Y127565D02*
D03*
X245089Y126565D02*
D03*
Y127565D02*
D03*
X243089Y126565D02*
D03*
Y127565D02*
D03*
X241089Y126565D02*
D03*
Y127565D02*
D03*
X240089Y126565D02*
D03*
Y127565D02*
D03*
X237089Y126565D02*
D03*
Y127565D02*
D03*
X236089Y126565D02*
D03*
Y127565D02*
D03*
X238089Y127565D02*
D03*
Y126565D02*
D03*
X239089Y127565D02*
D03*
Y126565D02*
D03*
X242089Y127565D02*
D03*
Y126565D02*
D03*
X244089Y127565D02*
D03*
Y126565D02*
D03*
X246089Y127565D02*
D03*
Y126565D02*
D03*
X247089Y127565D02*
D03*
Y126565D02*
D03*
X249089Y127565D02*
D03*
Y126565D02*
D03*
X251089Y127565D02*
D03*
Y126565D02*
D03*
X253089Y127565D02*
D03*
X254089D02*
D03*
X253089Y126565D02*
D03*
X254089D02*
D03*
X257089Y127565D02*
D03*
X258089D02*
D03*
X259089D02*
D03*
X260089Y127565D02*
D03*
X261089Y127565D02*
D03*
X262089D02*
D03*
X263089D02*
D03*
X264089D02*
D03*
X265089Y127565D02*
D03*
X266089Y127565D02*
D03*
X257089Y126565D02*
D03*
X258089D02*
D03*
X259089D02*
D03*
X260089Y126565D02*
D03*
X261089Y126565D02*
D03*
X262089D02*
D03*
X263089D02*
D03*
X264089D02*
D03*
X265089Y126565D02*
D03*
X266089Y126565D02*
D03*
D19*
X241489Y131965D02*
D03*
X242489D02*
D03*
Y132965D02*
D03*
X241489D02*
D03*
X240489Y131965D02*
D03*
X239489Y131965D02*
D03*
X240489Y132965D02*
D03*
X239489Y132965D02*
D03*
X232489Y132965D02*
D03*
Y131965D02*
D03*
X233489Y132965D02*
D03*
Y131965D02*
D03*
X234489Y132965D02*
D03*
Y131965D02*
D03*
X235489Y132965D02*
D03*
Y131965D02*
D03*
X236489Y132965D02*
D03*
X237489D02*
D03*
X236489Y131965D02*
D03*
X237489D02*
D03*
X238489Y132965D02*
D03*
Y131965D02*
D03*
X243489Y132965D02*
D03*
Y131965D02*
D03*
X244489Y132965D02*
D03*
X245489Y132965D02*
D03*
X246489D02*
D03*
X247489D02*
D03*
X244489Y131965D02*
D03*
X245489Y131965D02*
D03*
X246489D02*
D03*
X247489D02*
D03*
X248489Y132965D02*
D03*
X249489Y132965D02*
D03*
X250489D02*
D03*
X251489D02*
D03*
X248489Y131965D02*
D03*
X249489Y131965D02*
D03*
X250489D02*
D03*
X251489D02*
D03*
X264689D02*
D03*
X265689D02*
D03*
Y132965D02*
D03*
X264689D02*
D03*
X263689Y131965D02*
D03*
X262689Y131965D02*
D03*
X263689Y132965D02*
D03*
X262689Y132965D02*
D03*
X255689Y132965D02*
D03*
Y131965D02*
D03*
X256689Y132965D02*
D03*
Y131965D02*
D03*
X257689Y132965D02*
D03*
Y131965D02*
D03*
X258689Y132965D02*
D03*
Y131965D02*
D03*
X259689Y132965D02*
D03*
X260689D02*
D03*
X259689Y131965D02*
D03*
X260689D02*
D03*
X261689Y132965D02*
D03*
Y131965D02*
D03*
X266689Y132965D02*
D03*
Y131965D02*
D03*
X267689Y132965D02*
D03*
X268689Y132965D02*
D03*
X269689D02*
D03*
X270689D02*
D03*
X267689Y131965D02*
D03*
X268689Y131965D02*
D03*
X269689D02*
D03*
X270689D02*
D03*
X271689Y132965D02*
D03*
X272689Y132965D02*
D03*
X273689D02*
D03*
X274689D02*
D03*
X271689Y131965D02*
D03*
X272689Y131965D02*
D03*
X273689D02*
D03*
X274689D02*
D03*
D20*
X253589Y129665D02*
D03*
M02*
