M48
;Layer_Color=9474304
;FILE_FORMAT=2:4
INCH
;TYPE=PLATED
T1F00S00C0.0433
;TYPE=NON_PLATED
T2F00S00C0.1000
%
T01
X233489Y131965
X232489
Y132965
X233489
X234489
Y131965
X235489Y131965
Y132965
X236489Y132965
X237489
Y131965
X236489
X238489
Y132965
X239489Y132965
Y131965
X240489Y131965
X241489
X242489
Y132965
X241489
X240489
X243489
Y131965
X244489Y131965
Y132965
X245489Y132965
X246489
X247489
Y131965
X246489
X245489
X248489Y131965
Y132965
X249489Y132965
Y131965
X249089Y127565
X248089
Y126565
X249089
X247089Y126565
Y127565
X246089Y127565
Y126565
X245089
Y127565
X244089
X243089
Y126565
X244089
X242089Y126565
Y127565
X241089Y127565
Y126565
X240089
Y127565
X239089
Y126565
X238089Y126565
Y127565
X237089Y127565
Y126565
X236089
Y127565
X250089
Y126565
X251089Y126565
Y127565
X252089Y127565
Y126565
X253089
Y127565
X254089
X255089
Y126565
X254089
X256089Y126565
Y127565
X257089Y127565
X258089
X259089
Y126565
X258089
X257089
X260089Y126565
Y127565
X261089Y127565
Y126565
X262089
Y127565
X263089
X264089
Y126565
X263089
X265089Y126565
Y127565
X264689Y131965
Y132965
X263689
Y131965
X262689Y131965
Y132965
X261689Y132965
X260689
X259689
Y131965
X260689
X261689
X258689Y131965
Y132965
X257689Y132965
Y131965
X256689
X255689
Y132965
X256689
X251489
X250489
Y131965
X251489
X265689
Y132965
X266689
Y131965
X267689Y131965
Y132965
X268689Y132965
X269689
X270689
Y131965
X269689
X268689
X271689Y131965
Y132965
X272689Y132965
Y131965
X273689
Y132965
X274689
Y131965
X271089Y127565
Y126565
X270089
X269089Y126565
Y127565
X270089Y127565
X268089
Y126565
X267089
Y127565
X266089
Y126565
T02
X253589Y129665
M30
