M48
;Layer_Color=9474304
;FILE_FORMAT=2:4
INCH
;TYPE=PLATED
T1F00S00C0.0320
T2F00S00C0.0433
;TYPE=NON_PLATED
T3F00S00C0.1200
%
T01
X265514Y131765
X264514
X263514
X262514
X261514
X260514
X259514
X258514
X257514
X256514
X255514
X254514
X255014Y132345
X254764Y132885
X255764
X256014Y132345
X257014
X256764Y132885
X257764Y132885
X258014Y132345
X259014Y132345
X258764Y132885
X259764
X260014Y132345
X261014
X260764Y132885
X261764Y132885
X262014Y132345
X263014
X262764Y132885
X263764
X264014Y132345
X265014
X264764Y132885
X265264Y133465
X264264
X263264
X262264
X261264
X260264
X259264
X258264
X257264
X256264
X255264
X266264
X267264
X268264
X269264
X270264
X271264
X270764Y132885
X271014Y132345
X270014
X269764Y132885
X268764
X269014Y132345
X268014
X267764Y132885
X266764
X267014Y132345
X266014Y132345
X265764Y132885
X266514Y131765
X267514
X268514
X269514Y131765
X270514Y131765
T02
X249492Y128715
Y129715
X248492Y129715
Y128715
X247492
X246492
Y129715
X247492
X250492
X251492
Y128715
X252492
Y129715
X253492Y129715
Y128715
X254492Y128715
Y129715
X255492
Y128715
X256492
X257492
Y129715
X256492
X258492Y129715
Y128715
X259492Y128715
Y129715
X260492
X261492
Y128715
X260492
X262492
Y129715
X263492Y129715
Y128715
X264492Y128715
Y129715
X265492
Y128715
X250492
X266492
Y129715
X267492Y129715
Y128715
X268492Y128715
Y129715
X269492
Y128715
X270492
Y129715
T03
X251689Y132665
M30
