G04*
G04 #@! TF.GenerationSoftware,Altium Limited,Altium Designer,20.2.6 (244)*
G04*
G04 Layer_Physical_Order=1*
G04 Layer_Color=255*
%FSAX24Y24*%
%MOIN*%
G70*
G04*
G04 #@! TF.SameCoordinates,CB3CE92A-2C73-40AF-8568-92EE87018610*
G04*
G04*
G04 #@! TF.FilePolarity,Positive*
G04*
G01*
G75*
%ADD11C,0.0080*%
%ADD13R,0.0512X0.0551*%
%ADD20C,0.0630*%
%ADD21R,0.0630X0.0630*%
%ADD22C,0.0500*%
%ADD23R,0.0500X0.0500*%
%ADD24C,0.2500*%
D11*
X253039Y129168D02*
X253492Y128715D01*
X253039Y130025D02*
X253379Y130365D01*
X253039Y129168D02*
Y130025D01*
X262239Y131265D02*
X262639D01*
X261039Y130415D02*
X261389D01*
X262239Y131265D01*
X260643Y130019D02*
X261039Y130415D01*
X261589Y130215D02*
X262239Y130865D01*
X261039Y130615D02*
X261939Y131515D01*
X261039Y130015D02*
X261239Y130215D01*
X260639Y130615D02*
X261039D01*
X259989Y129965D02*
X260639Y130615D01*
X261239Y130215D02*
X261589D01*
X261939Y131515D02*
Y131865D01*
X261139Y131615D02*
Y131913D01*
X259739Y130215D02*
X261139Y131615D01*
X256339Y130215D02*
X259739D01*
X261139Y131913D02*
X261384Y132158D01*
X265139Y131362D02*
Y131913D01*
X263492Y129715D02*
X265139Y131362D01*
Y131913D02*
X265384Y132158D01*
X264939Y131615D02*
Y131939D01*
X263489Y130165D02*
X264939Y131615D01*
X265014Y132014D02*
Y132345D01*
X264939Y131939D02*
X265014Y132014D01*
X265384Y132158D02*
Y132570D01*
X264989Y129218D02*
X265492Y128715D01*
X264989Y130015D02*
X265929Y130955D01*
X264989Y129218D02*
Y130015D01*
X263989Y129218D02*
X264492Y128715D01*
X263989Y129915D02*
X265514Y131440D01*
X263989Y129218D02*
Y129915D01*
X255542Y129765D02*
X255889D01*
X256339Y130215D01*
X256289Y130415D02*
X259499D01*
X253942Y130165D02*
X256039D01*
X256289Y130415D01*
X251409Y130335D02*
X252829D01*
X250989Y129212D02*
Y129915D01*
X251409Y130335D01*
X247004Y129227D02*
Y129929D01*
X247919Y130845D02*
X252599D01*
X247004Y129929D02*
X247919Y130845D01*
X246492Y129715D02*
X247792Y131015D01*
X252519D01*
X261039Y129262D02*
Y130015D01*
X260492Y128715D02*
X261039Y129262D01*
X262959Y130565D02*
X264139Y131745D01*
X262342Y130565D02*
X262959D01*
X264139Y131745D02*
Y131913D01*
X266909Y130145D02*
X266989Y130065D01*
Y129218D02*
Y130065D01*
X266909Y130145D02*
Y131952D01*
X256492Y129715D02*
X256932Y129275D01*
X259799D02*
X259989Y129465D01*
X256932Y129275D02*
X259799D01*
X256136Y131185D02*
X257659D01*
X257989Y131515D02*
Y131763D01*
X257659Y131185D02*
X257989Y131515D01*
X258339Y130815D02*
X259059Y131535D01*
Y131833D02*
X259384Y132158D01*
X259059Y131535D02*
Y131833D01*
X256245Y130615D02*
X259219D01*
X259939Y131335D02*
Y132270D01*
X259219Y130615D02*
X259939Y131335D01*
X260139Y131055D02*
Y131913D01*
X259499Y130415D02*
X260139Y131055D01*
X262239Y130865D02*
X262639D01*
X269492Y129715D02*
Y130162D01*
X268134Y131520D02*
Y131922D01*
Y131520D02*
X269492Y130162D01*
X267939Y131395D02*
Y132270D01*
X268989Y129218D02*
Y130345D01*
X267939Y131395D02*
X268989Y130345D01*
X266989Y129218D02*
X267492Y128715D01*
X267129Y131375D02*
X267492Y131012D01*
X267129Y131917D02*
X267439Y132227D01*
X267129Y131375D02*
Y131917D01*
X266909Y131952D02*
X266975Y132018D01*
Y132306D02*
X267014Y132345D01*
X266975Y132018D02*
Y132306D01*
X265929Y131929D02*
X266014Y132014D01*
X265929Y130955D02*
Y131929D01*
X251492Y129715D02*
X251942Y130165D01*
X252929D01*
X253329Y130565D01*
X252829Y130335D02*
X253219Y130725D01*
X250282Y130505D02*
X252749D01*
X253129Y130885D01*
X249492Y129715D02*
X250282Y130505D01*
X248452Y130675D02*
X252679D01*
X253049Y131045D01*
X247492Y129715D02*
X248452Y130675D01*
X252599Y130845D02*
X252959Y131205D01*
X252519Y131015D02*
X252869Y131365D01*
X253049Y131045D02*
X255770D01*
X252959Y131205D02*
X255704D01*
X252869Y131365D02*
X255637D01*
X253129Y130885D02*
X255836D01*
X253219Y130725D02*
X255902D01*
X253329Y130565D02*
X255969D01*
X253379Y130365D02*
X255995D01*
X257989Y131763D02*
X258384Y132158D01*
X255836Y130885D02*
X256136Y131185D01*
X257754Y131005D02*
X258514Y131765D01*
X255902Y130725D02*
X256182Y131005D01*
X257754D01*
X257384Y132158D02*
Y132570D01*
X256100Y131375D02*
X256749D01*
X257039Y131665D02*
Y131813D01*
X255770Y131045D02*
X256100Y131375D01*
X256749D02*
X257039Y131665D01*
Y131813D02*
X257384Y132158D01*
X255969Y130565D02*
X256219Y130815D01*
X258339D01*
X255995Y130365D02*
X256245Y130615D01*
X253492Y129715D02*
X253942Y130165D01*
X255637Y131365D02*
X255989Y131717D01*
X255704Y131205D02*
X256264Y131765D01*
X250492Y128715D02*
X250989Y129212D01*
X255989Y131783D02*
X256394Y132188D01*
Y132515D01*
X255989Y131717D02*
Y131783D01*
X256394Y132515D02*
X256764Y132885D01*
X259989Y129465D02*
Y129965D01*
X256264Y131765D02*
X256514D01*
X255492Y129715D02*
X255542Y129765D01*
X261589Y132215D02*
X261939Y131865D01*
X261764Y132803D02*
Y132885D01*
X261589Y132628D02*
X261764Y132803D01*
X261589Y132215D02*
Y132628D01*
X259939Y132270D02*
X260014Y132345D01*
X260139Y131913D02*
X260384Y132158D01*
Y132570D01*
X246492Y128715D02*
X247004Y129227D01*
X261264Y132690D02*
X261384Y132570D01*
X261264Y132690D02*
Y133465D01*
X261384Y132158D02*
Y132570D01*
X260264Y132690D02*
X260384Y132570D01*
X260264Y132690D02*
Y133465D01*
X259264Y132690D02*
X259384Y132570D01*
X259264Y132690D02*
Y133465D01*
X259384Y132158D02*
Y132570D01*
X258264Y132690D02*
X258384Y132570D01*
X258264Y132690D02*
Y133465D01*
X258384Y132158D02*
Y132570D01*
X257264Y132690D02*
Y133465D01*
Y132690D02*
X257384Y132570D01*
X262989Y131765D02*
X263489Y132265D01*
Y132496D02*
X263764Y132771D01*
X263489Y132265D02*
Y132496D01*
X263764Y132771D02*
Y132885D01*
X263514Y131740D02*
Y131765D01*
X262639Y130865D02*
X263514Y131740D01*
X262639Y131265D02*
X262989Y131615D01*
X260492Y129715D02*
Y129864D01*
X260643Y130015D01*
Y130019D01*
X262989Y131615D02*
Y131765D01*
Y129218D02*
X263492Y128715D01*
X262989Y129915D02*
X263239Y130165D01*
X262989Y129218D02*
Y129915D01*
X263239Y130165D02*
X263489D01*
X262489Y130365D02*
X263114D01*
X264514Y131765D01*
X262039Y129915D02*
X262489Y130365D01*
X262039Y129168D02*
Y129915D01*
Y129168D02*
X262492Y128715D01*
X265514Y131440D02*
Y131765D01*
X261492Y129715D02*
X262342Y130565D01*
X264264Y132690D02*
X264384Y132570D01*
X264264Y132690D02*
Y133465D01*
X264384Y132158D02*
Y132570D01*
X264139Y131913D02*
X264384Y132158D01*
X265264Y132690D02*
X265384Y132570D01*
X265264Y132690D02*
Y133465D01*
X265492Y128715D02*
Y128715D01*
X266014Y132014D02*
Y132345D01*
X266139Y130362D02*
Y131913D01*
X266384Y132158D01*
Y132570D01*
X266264Y132690D02*
Y133465D01*
Y132690D02*
X266384Y132570D01*
X265492Y129715D02*
X266139Y130362D01*
X266514Y130440D02*
Y131765D01*
X265989Y129218D02*
Y129915D01*
X266514Y130440D01*
X265989Y129218D02*
X266492Y128715D01*
X267989Y129218D02*
X268492Y128715D01*
X267989Y129218D02*
Y130915D01*
X267514Y131390D02*
X267989Y130915D01*
X267514Y131390D02*
Y131765D01*
X270014Y132345D02*
Y132378D01*
X268764Y132801D02*
Y132885D01*
X254514Y131845D02*
X255014Y132345D01*
X268989Y131515D02*
Y131827D01*
X268589Y132626D02*
X268764Y132801D01*
X268671Y132145D02*
X268671D01*
X269539Y133865D02*
X269789Y133615D01*
X255739Y133665D02*
X255939Y133865D01*
X268989Y131515D02*
X269189Y131315D01*
X268589Y132227D02*
Y132626D01*
X268671Y132145D02*
X268989Y131827D01*
X270014Y132378D02*
X270239Y132603D01*
X268589Y132227D02*
X268671Y132145D01*
X268134Y131922D02*
X268409Y132197D01*
X263207Y134621D02*
X263613Y134215D01*
X268264Y132740D02*
X268409Y132595D01*
X270014Y132265D02*
Y132345D01*
X270514Y131845D01*
X269014Y132265D02*
Y132345D01*
X271014Y132265D02*
Y132345D01*
X269514Y131765D02*
X270014Y132265D01*
X269014D02*
X269514Y131765D01*
X270514Y131765D02*
X271014Y132265D01*
X270514Y131765D02*
Y131845D01*
X262339Y132615D02*
X262514Y132440D01*
Y131765D02*
Y132440D01*
X262339Y133003D02*
X262865Y133529D01*
Y134215D01*
X269789Y133397D02*
X270239Y132947D01*
X269789Y133397D02*
Y133615D01*
X255014Y132345D02*
X255239Y132570D01*
Y132902D02*
X255739Y133402D01*
X270492Y129715D02*
Y130812D01*
X268264Y132740D02*
Y133465D01*
X269989Y131315D02*
X270492Y130812D01*
X268989Y129218D02*
X269492Y128715D01*
X254514Y131765D02*
Y131845D01*
X268514Y131765D02*
X268591Y131688D01*
Y131513D02*
Y131688D01*
X264039Y134215D02*
X264389Y133865D01*
X262339Y132615D02*
Y133003D01*
X255239Y132570D02*
Y132902D01*
X255514Y131765D02*
X256014Y132265D01*
Y132345D01*
X269989Y129218D02*
X270492Y128715D01*
X269989Y129218D02*
Y130115D01*
X267939Y132270D02*
X268014Y132345D01*
X268591Y131513D02*
X269989Y130115D01*
X267439Y132227D02*
Y132565D01*
X267492Y129715D02*
Y131012D01*
X267264Y132740D02*
X267439Y132565D01*
X267264Y132740D02*
Y133465D01*
X262495Y134621D02*
X263207D01*
X255939Y133865D02*
X261739D01*
X264389Y133865D02*
X269539Y133865D01*
X268409Y132197D02*
Y132595D01*
X263613Y134215D02*
X264039D01*
X255739Y133402D02*
Y133665D01*
X261739Y133865D02*
X262495Y134621D01*
X269189Y131315D02*
X269989D01*
X255014Y132265D02*
X255514Y131765D01*
X255014Y132265D02*
Y132345D01*
X270239Y132603D02*
Y132947D01*
D13*
X263613Y134215D02*
D03*
X262865D02*
D03*
D20*
X251492Y128715D02*
D03*
X252492D02*
D03*
X253492Y128715D02*
D03*
X254492Y128715D02*
D03*
X251492Y129715D02*
D03*
X252492D02*
D03*
X253492Y129715D02*
D03*
X254492Y129715D02*
D03*
X255492Y128715D02*
D03*
X256492D02*
D03*
X257492D02*
D03*
X258492Y128715D02*
D03*
X255492Y129715D02*
D03*
X256492D02*
D03*
X257492D02*
D03*
X258492Y129715D02*
D03*
X259492Y128715D02*
D03*
Y129715D02*
D03*
X264492Y128715D02*
D03*
Y129715D02*
D03*
X265492Y128715D02*
D03*
X266492D02*
D03*
X265492Y129715D02*
D03*
X266492D02*
D03*
X267492Y128715D02*
D03*
Y129715D02*
D03*
X268492Y128715D02*
D03*
Y129715D02*
D03*
X269492Y128715D02*
D03*
Y129715D02*
D03*
X270492Y128715D02*
D03*
X263492Y129715D02*
D03*
X262492Y129715D02*
D03*
X263492Y128715D02*
D03*
X262492Y128715D02*
D03*
X261492Y129715D02*
D03*
X260492D02*
D03*
Y128715D02*
D03*
X261492D02*
D03*
X246492D02*
D03*
X247492D02*
D03*
X248492D02*
D03*
X249492Y128715D02*
D03*
X246492Y129715D02*
D03*
X247492D02*
D03*
X248492D02*
D03*
X249492Y129715D02*
D03*
X250492Y128715D02*
D03*
Y129715D02*
D03*
D21*
X270492D02*
D03*
D22*
X260514Y131765D02*
D03*
X261514D02*
D03*
X262514D02*
D03*
X263514D02*
D03*
X269514Y131765D02*
D03*
X268514Y131765D02*
D03*
X267514D02*
D03*
X266514D02*
D03*
X265514D02*
D03*
X264514D02*
D03*
X259514D02*
D03*
X258514D02*
D03*
X257514D02*
D03*
X256514D02*
D03*
X255514D02*
D03*
X261014Y132345D02*
D03*
X262014D02*
D03*
X263014D02*
D03*
X264014D02*
D03*
X270014D02*
D03*
X269014D02*
D03*
X268014D02*
D03*
X267014Y132345D02*
D03*
X266014Y132345D02*
D03*
X265014D02*
D03*
X260014D02*
D03*
X259014D02*
D03*
X258014Y132345D02*
D03*
X257014Y132345D02*
D03*
X256014D02*
D03*
X255014D02*
D03*
X270764Y132885D02*
D03*
X271014Y132345D02*
D03*
X270514Y131765D02*
D03*
X261764Y132885D02*
D03*
X260764Y132885D02*
D03*
X262764D02*
D03*
X263764D02*
D03*
X268764D02*
D03*
X267764D02*
D03*
X266764D02*
D03*
X265764Y132885D02*
D03*
X264764Y132885D02*
D03*
X259764D02*
D03*
X258764D02*
D03*
X257764D02*
D03*
X256764Y132885D02*
D03*
X255764Y132885D02*
D03*
X254764D02*
D03*
X269764D02*
D03*
X261264Y133465D02*
D03*
X262264D02*
D03*
X263264D02*
D03*
X264264D02*
D03*
X270264D02*
D03*
X269264D02*
D03*
X268264D02*
D03*
X267264D02*
D03*
X266264D02*
D03*
X265264D02*
D03*
X260264D02*
D03*
X259264D02*
D03*
X258264D02*
D03*
X257264D02*
D03*
X256264D02*
D03*
X255264D02*
D03*
X254514Y131765D02*
D03*
D23*
X271264Y133465D02*
D03*
D24*
X251689Y132665D02*
D03*
M02*
