G04*
G04 #@! TF.GenerationSoftware,Altium Limited,Altium Designer,20.2.6 (244)*
G04*
G04 Layer_Physical_Order=2*
G04 Layer_Color=16711680*
%FSAX24Y24*%
%MOIN*%
G70*
G04*
G04 #@! TF.SameCoordinates,CB3CE92A-2C73-40AF-8568-92EE87018610*
G04*
G04*
G04 #@! TF.FilePolarity,Positive*
G04*
G01*
G75*
%ADD11C,0.0080*%
%ADD20C,0.0630*%
%ADD21R,0.0630X0.0630*%
%ADD22C,0.0500*%
%ADD23R,0.0500X0.0500*%
%ADD24C,0.2500*%
D11*
X252939Y129815D02*
X253339Y130215D01*
X252492Y128715D02*
X252939Y129162D01*
Y129815D01*
X248939Y130965D02*
X252489D01*
X247989Y129212D02*
Y130015D01*
X248939Y130965D01*
X257889Y131523D02*
Y131915D01*
X257996Y132022D02*
Y132327D01*
X258014Y132345D01*
X257889Y131915D02*
X257996Y132022D01*
X258089Y131496D02*
Y131863D01*
X258489Y132263D01*
X258187Y130915D02*
X258939D01*
X259470Y131721D02*
X259514Y131765D01*
X258939Y130915D02*
X259470Y131446D01*
Y131721D01*
X262492Y129715D02*
Y129918D01*
X263989Y131415D01*
Y131763D01*
X252489Y130965D02*
X253139Y131615D01*
X254339Y132565D02*
Y133065D01*
X253139Y131615D02*
X253389D01*
X254339Y132565D01*
X253489Y131415D02*
X254239Y132165D01*
X253165Y131415D02*
X253489D01*
X254239Y132165D02*
X254639D01*
X249582Y130805D02*
X252555D01*
X253165Y131415D01*
X253579Y131205D02*
X253739Y131365D01*
X253182Y131205D02*
X253579D01*
X252622Y130645D02*
X253182Y131205D01*
X252688Y130485D02*
X253218Y131015D01*
X253689D02*
X253859Y131185D01*
X253218Y131015D02*
X253689D01*
X253789Y130815D02*
X253989Y131015D01*
X252754Y130325D02*
X253244Y130815D01*
X253789D01*
X253889Y130615D02*
X254119Y130845D01*
X253270Y130615D02*
X253889D01*
X252820Y130165D02*
X253270Y130615D01*
X253297Y130415D02*
X253989D01*
X252597Y129715D02*
X253297Y130415D01*
X253989D02*
X254249Y130675D01*
X253339Y130215D02*
X254089D01*
X254379Y130505D01*
X253739Y131365D02*
X257114D01*
X257514Y131765D01*
X253859Y131185D02*
X257551D01*
X253989Y131015D02*
X257608D01*
X254119Y130845D02*
X257664D01*
X254249Y130675D02*
X257720D01*
X254379Y130505D02*
X257777D01*
X257551Y131185D02*
X257889Y131523D01*
X257608Y131015D02*
X258089Y131496D01*
X257664Y130845D02*
X258134Y131315D01*
X257720Y130675D02*
X258160Y131115D01*
X257777Y130505D02*
X258187Y130915D01*
X254492Y129715D02*
Y129715D01*
X255112Y130335D01*
X257833D01*
X258213Y130715D01*
X255194Y130165D02*
X257889D01*
X254989Y129960D02*
X255194Y130165D01*
X257889D02*
X258249Y130525D01*
X260649Y129175D02*
X260949Y129475D01*
Y130200D02*
X262514Y131765D01*
X260949Y129475D02*
Y130200D01*
X267019Y130242D02*
Y131783D01*
X266492Y129715D02*
X267019Y130242D01*
X266639Y132163D02*
X267019Y131783D01*
X261492Y128715D02*
X261949Y129172D01*
Y130365D02*
X263079Y131495D01*
X261949Y129172D02*
Y130365D01*
X258794Y128820D02*
X259149Y129175D01*
X260649D01*
X257989Y128515D02*
Y128975D01*
X258699Y129175D02*
X258989Y129465D01*
X257989Y128975D02*
X258189Y129175D01*
X258699D01*
X255492Y128715D02*
X255952Y129175D01*
X257649D01*
X257989Y129515D01*
X263079Y131855D02*
X263569Y132345D01*
X263079Y131495D02*
Y131855D01*
X268492Y129715D02*
Y130632D01*
X268039Y131085D02*
Y131797D01*
Y131085D02*
X268492Y130632D01*
X267644Y132192D02*
X268039Y131797D01*
X264492Y129715D02*
X266039Y131262D01*
Y131765D01*
X265589Y132215D02*
X266039Y131765D01*
X252492Y129715D02*
X252597D01*
X251102Y130325D02*
X252754D01*
X249719Y130645D02*
X252622D01*
X250459Y130485D02*
X252688D01*
X252239Y130165D02*
X252820D01*
X248989Y129915D02*
X249719Y130645D01*
X249989Y130015D02*
X250459Y130485D01*
X251989Y129915D02*
X252239Y130165D01*
X248492Y129715D02*
X249582Y130805D01*
X250492Y129715D02*
X251102Y130325D01*
X248492Y128715D02*
X248989Y129212D01*
X249492Y128715D02*
X249989Y129212D01*
X251989Y129212D02*
Y129915D01*
X248989Y129212D02*
Y129915D01*
X249989Y129212D02*
Y130015D01*
X251492Y128715D02*
X251989Y129212D01*
X258339Y130365D02*
X259689D01*
X257989Y130015D02*
X258339Y130365D01*
X259689D02*
X261014Y131690D01*
X258989Y129915D02*
X259239Y130165D01*
X259914D01*
X258989Y129465D02*
Y129915D01*
X259914Y130165D02*
X260561Y130811D01*
X258492Y128715D02*
X258597Y128820D01*
X258794D01*
X261014Y131690D02*
Y132345D01*
X259316Y130525D02*
X260514Y131723D01*
X258249Y130525D02*
X259316D01*
X257989Y129515D02*
Y130015D01*
X256492Y128715D02*
X256942Y128265D01*
X257739D01*
X257989Y128515D01*
X258160Y131115D02*
X258789D01*
X258213Y130715D02*
X259139D01*
X258134Y131315D02*
X258689D01*
X259139Y130715D02*
X260139Y131715D01*
X261495Y131746D02*
X261514Y131765D01*
X261495Y131271D02*
Y131746D01*
X261036Y130811D02*
X261495Y131271D01*
X260561Y130811D02*
X261036D01*
X254989Y129212D02*
Y129960D01*
X260139Y131715D02*
Y131915D01*
X260514Y131723D02*
Y131765D01*
X254339Y133065D02*
X254539Y133265D01*
X258789Y131115D02*
X259139Y131465D01*
X258979Y131605D02*
Y132112D01*
X258689Y131315D02*
X258979Y131605D01*
X254639Y132165D02*
X254839Y131965D01*
X255189D01*
X255389Y132165D01*
X255639D01*
X255839Y131965D01*
X256189D01*
X256389Y132165D01*
X256639D01*
X256889Y131915D01*
X257141D01*
X256339Y132665D02*
X256659Y132345D01*
X256339Y132665D02*
Y132865D01*
X256659Y132345D02*
X257014D01*
X255939Y133265D02*
X256339Y132865D01*
X255620Y133265D02*
X255939D01*
X255420Y133065D02*
X255620Y133265D01*
X255139Y133065D02*
X255420D01*
X254939Y133265D02*
X255139Y133065D01*
X254539Y133265D02*
X254939D01*
X258489Y132263D02*
Y132610D01*
X258764Y132885D01*
X254492Y128715D02*
X254989Y129212D01*
X260539Y132660D02*
X260764Y132885D01*
X260539Y132315D02*
Y132660D01*
X257141Y131915D02*
X257489Y132263D01*
Y132610D02*
X257764Y132885D01*
X257489Y132263D02*
Y132610D01*
X259139Y131465D02*
Y131915D01*
X259539Y132315D02*
Y132653D01*
X259139Y131915D02*
X259539Y132315D01*
X259764Y132878D02*
Y132885D01*
X259539Y132653D02*
X259764Y132878D01*
X260139Y131915D02*
X260539Y132315D01*
X247492Y128715D02*
X247989Y129212D01*
X263989Y131763D02*
X264589Y132363D01*
Y132628D01*
X264764Y132803D01*
Y132885D01*
X263569Y132345D02*
X264014D01*
X265764Y132803D02*
Y132885D01*
X265589Y132628D02*
X265764Y132803D01*
X265589Y132215D02*
Y132628D01*
X266764Y132771D02*
Y132885D01*
X266639Y132646D02*
X266764Y132771D01*
X266639Y132163D02*
Y132646D01*
X267639Y132215D02*
X267644Y132210D01*
Y132192D02*
Y132210D01*
X267764Y132771D02*
Y132885D01*
X267639Y132646D02*
X267764Y132771D01*
X267639Y132215D02*
Y132646D01*
D20*
X251492Y128715D02*
D03*
X252492D02*
D03*
X253492Y128715D02*
D03*
X254492Y128715D02*
D03*
X251492Y129715D02*
D03*
X252492D02*
D03*
X253492Y129715D02*
D03*
X254492Y129715D02*
D03*
X255492Y128715D02*
D03*
X256492D02*
D03*
X257492D02*
D03*
X258492Y128715D02*
D03*
X255492Y129715D02*
D03*
X256492D02*
D03*
X257492D02*
D03*
X258492Y129715D02*
D03*
X259492Y128715D02*
D03*
Y129715D02*
D03*
X264492Y128715D02*
D03*
Y129715D02*
D03*
X265492Y128715D02*
D03*
X266492D02*
D03*
X265492Y129715D02*
D03*
X266492D02*
D03*
X267492Y128715D02*
D03*
Y129715D02*
D03*
X268492Y128715D02*
D03*
Y129715D02*
D03*
X269492Y128715D02*
D03*
Y129715D02*
D03*
X270492Y128715D02*
D03*
X263492Y129715D02*
D03*
X262492Y129715D02*
D03*
X263492Y128715D02*
D03*
X262492Y128715D02*
D03*
X261492Y129715D02*
D03*
X260492D02*
D03*
Y128715D02*
D03*
X261492D02*
D03*
X246492D02*
D03*
X247492D02*
D03*
X248492D02*
D03*
X249492Y128715D02*
D03*
X246492Y129715D02*
D03*
X247492D02*
D03*
X248492D02*
D03*
X249492Y129715D02*
D03*
X250492Y128715D02*
D03*
Y129715D02*
D03*
D21*
X270492D02*
D03*
D22*
X260514Y131765D02*
D03*
X261514D02*
D03*
X262514D02*
D03*
X263514D02*
D03*
X269514Y131765D02*
D03*
X268514Y131765D02*
D03*
X267514D02*
D03*
X266514D02*
D03*
X265514D02*
D03*
X264514D02*
D03*
X259514D02*
D03*
X258514D02*
D03*
X257514D02*
D03*
X256514D02*
D03*
X255514D02*
D03*
X261014Y132345D02*
D03*
X262014D02*
D03*
X263014D02*
D03*
X264014D02*
D03*
X270014D02*
D03*
X269014D02*
D03*
X268014D02*
D03*
X267014Y132345D02*
D03*
X266014Y132345D02*
D03*
X265014D02*
D03*
X260014D02*
D03*
X259014D02*
D03*
X258014Y132345D02*
D03*
X257014Y132345D02*
D03*
X256014D02*
D03*
X255014D02*
D03*
X270764Y132885D02*
D03*
X271014Y132345D02*
D03*
X270514Y131765D02*
D03*
X261764Y132885D02*
D03*
X260764Y132885D02*
D03*
X262764D02*
D03*
X263764D02*
D03*
X268764D02*
D03*
X267764D02*
D03*
X266764D02*
D03*
X265764Y132885D02*
D03*
X264764Y132885D02*
D03*
X259764D02*
D03*
X258764D02*
D03*
X257764D02*
D03*
X256764Y132885D02*
D03*
X255764Y132885D02*
D03*
X254764D02*
D03*
X269764D02*
D03*
X261264Y133465D02*
D03*
X262264D02*
D03*
X263264D02*
D03*
X264264D02*
D03*
X270264D02*
D03*
X269264D02*
D03*
X268264D02*
D03*
X267264D02*
D03*
X266264D02*
D03*
X265264D02*
D03*
X260264D02*
D03*
X259264D02*
D03*
X258264D02*
D03*
X257264D02*
D03*
X256264D02*
D03*
X255264D02*
D03*
X254514Y131765D02*
D03*
D23*
X271264Y133465D02*
D03*
D24*
X251689Y132665D02*
D03*
M02*
