G04*
G04 #@! TF.GenerationSoftware,Altium Limited,Altium Designer,20.2.6 (244)*
G04*
G04 Layer_Color=16711935*
%FSAX24Y24*%
%MOIN*%
G70*
G04*
G04 #@! TF.SameCoordinates,CB3CE92A-2C73-40AF-8568-92EE87018610*
G04*
G04*
G04 #@! TF.FilePolarity,Negative*
G04*
G01*
G75*
%ADD15C,0.0710*%
%ADD16R,0.0710X0.0710*%
%ADD17C,0.0580*%
%ADD18R,0.0580X0.0580*%
%ADD19C,0.2580*%
D15*
X251492Y128715D02*
D03*
X252492D02*
D03*
X253492Y128715D02*
D03*
X254492Y128715D02*
D03*
X251492Y129715D02*
D03*
X252492D02*
D03*
X253492Y129715D02*
D03*
X254492Y129715D02*
D03*
X255492Y128715D02*
D03*
X256492D02*
D03*
X257492D02*
D03*
X258492Y128715D02*
D03*
X255492Y129715D02*
D03*
X256492D02*
D03*
X257492D02*
D03*
X258492Y129715D02*
D03*
X259492Y128715D02*
D03*
Y129715D02*
D03*
X264492Y128715D02*
D03*
Y129715D02*
D03*
X265492Y128715D02*
D03*
X266492D02*
D03*
X265492Y129715D02*
D03*
X266492D02*
D03*
X267492Y128715D02*
D03*
Y129715D02*
D03*
X268492Y128715D02*
D03*
Y129715D02*
D03*
X269492Y128715D02*
D03*
Y129715D02*
D03*
X270492Y128715D02*
D03*
X263492Y129715D02*
D03*
X262492Y129715D02*
D03*
X263492Y128715D02*
D03*
X262492Y128715D02*
D03*
X261492Y129715D02*
D03*
X260492D02*
D03*
Y128715D02*
D03*
X261492D02*
D03*
X246492D02*
D03*
X247492D02*
D03*
X248492D02*
D03*
X249492Y128715D02*
D03*
X246492Y129715D02*
D03*
X247492D02*
D03*
X248492D02*
D03*
X249492Y129715D02*
D03*
X250492Y128715D02*
D03*
Y129715D02*
D03*
D16*
X270492D02*
D03*
D17*
X260514Y131765D02*
D03*
X261514D02*
D03*
X262514D02*
D03*
X263514D02*
D03*
X269514Y131765D02*
D03*
X268514Y131765D02*
D03*
X267514D02*
D03*
X266514D02*
D03*
X265514D02*
D03*
X264514D02*
D03*
X259514D02*
D03*
X258514D02*
D03*
X257514D02*
D03*
X256514D02*
D03*
X255514D02*
D03*
X261014Y132345D02*
D03*
X262014D02*
D03*
X263014D02*
D03*
X264014D02*
D03*
X270014D02*
D03*
X269014D02*
D03*
X268014D02*
D03*
X267014Y132345D02*
D03*
X266014Y132345D02*
D03*
X265014D02*
D03*
X260014D02*
D03*
X259014D02*
D03*
X258014Y132345D02*
D03*
X257014Y132345D02*
D03*
X256014D02*
D03*
X255014D02*
D03*
X270764Y132885D02*
D03*
X271014Y132345D02*
D03*
X270514Y131765D02*
D03*
X261764Y132885D02*
D03*
X260764Y132885D02*
D03*
X262764D02*
D03*
X263764D02*
D03*
X268764D02*
D03*
X267764D02*
D03*
X266764D02*
D03*
X265764Y132885D02*
D03*
X264764Y132885D02*
D03*
X259764D02*
D03*
X258764D02*
D03*
X257764D02*
D03*
X256764Y132885D02*
D03*
X255764Y132885D02*
D03*
X254764D02*
D03*
X269764D02*
D03*
X261264Y133465D02*
D03*
X262264D02*
D03*
X263264D02*
D03*
X264264D02*
D03*
X270264D02*
D03*
X269264D02*
D03*
X268264D02*
D03*
X267264D02*
D03*
X266264D02*
D03*
X265264D02*
D03*
X260264D02*
D03*
X259264D02*
D03*
X258264D02*
D03*
X257264D02*
D03*
X256264D02*
D03*
X255264D02*
D03*
X254514Y131765D02*
D03*
D18*
X271264Y133465D02*
D03*
D19*
X251689Y132665D02*
D03*
M02*
