G04*
G04 #@! TF.GenerationSoftware,Altium Limited,Altium Designer,20.2.6 (244)*
G04*
G04 Layer_Color=32896*
%FSAX24Y24*%
%MOIN*%
G70*
G04*
G04 #@! TF.SameCoordinates,CB3CE92A-2C73-40AF-8568-92EE87018610*
G04*
G04*
G04 #@! TF.FilePolarity,Positive*
G04*
G01*
G75*
%ADD10C,0.0079*%
%ADD11C,0.0080*%
D10*
X271739Y130515D02*
X272539Y131315D01*
X253989Y130515D02*
X271739D01*
X272539Y131315D02*
Y134715D01*
X253239Y131265D02*
X253989Y130515D01*
X253239Y131265D02*
X253239Y134715D01*
X272539Y134715D01*
D11*
X270472Y128065D02*
X270739D01*
Y127865D01*
X270606Y127932D01*
X270539D01*
X270472Y127865D01*
Y127732D01*
X270539Y127665D01*
X270672D01*
X270739Y127732D01*
X270339Y127998D02*
X270273Y128065D01*
X270139D01*
X270073Y127998D01*
Y127732D01*
X270139Y127665D01*
X270273D01*
X270339Y127732D01*
Y127998D01*
X269939Y127532D02*
Y127932D01*
X269739D01*
X269673Y127865D01*
Y127732D01*
X269739Y127665D01*
X269939D01*
X269539D02*
X269406D01*
X269473D01*
Y127932D01*
X269539D01*
X269206Y127665D02*
Y127932D01*
X269006D01*
X268940Y127865D01*
Y127665D01*
X268406D02*
Y128065D01*
X268273Y127932D01*
X268140Y128065D01*
Y127665D01*
X267540Y127998D02*
Y127932D01*
X267607D01*
X267473D01*
X267540D01*
Y127732D01*
X267473Y127665D01*
X267207D02*
X267074D01*
X267007Y127732D01*
Y127865D01*
X267074Y127932D01*
X267207D01*
X267274Y127865D01*
Y127732D01*
X267207Y127665D01*
X266207Y128065D02*
X266340Y127998D01*
X266474Y127865D01*
Y127732D01*
X266407Y127665D01*
X266274D01*
X266207Y127732D01*
Y127798D01*
X266274Y127865D01*
X266474D01*
X266074Y127998D02*
X266007Y128065D01*
X265874D01*
X265807Y127998D01*
Y127932D01*
X265874Y127865D01*
X265807Y127798D01*
Y127732D01*
X265874Y127665D01*
X266007D01*
X266074Y127732D01*
Y127798D01*
X266007Y127865D01*
X266074Y127932D01*
Y127998D01*
X266007Y127865D02*
X265874D01*
X265674Y127532D02*
Y127932D01*
X265474D01*
X265407Y127865D01*
Y127732D01*
X265474Y127665D01*
X265674D01*
X265274D02*
X265141D01*
X265208D01*
Y127932D01*
X265274D01*
X264941Y127665D02*
Y127932D01*
X264741D01*
X264674Y127865D01*
Y127665D01*
X264141D02*
Y128065D01*
X264008Y127932D01*
X263875Y128065D01*
Y127665D01*
X263075Y127998D02*
X263142Y128065D01*
X263275D01*
X263341Y127998D01*
Y127932D01*
X263275Y127865D01*
X263142D01*
X263075Y127798D01*
Y127732D01*
X263142Y127665D01*
X263275D01*
X263341Y127732D01*
X262675Y127998D02*
X262742Y128065D01*
X262875D01*
X262942Y127998D01*
Y127732D01*
X262875Y127665D01*
X262742D01*
X262675Y127732D01*
X262275Y127998D02*
X262342Y128065D01*
X262475D01*
X262542Y127998D01*
Y127932D01*
X262475Y127865D01*
X262342D01*
X262275Y127798D01*
Y127732D01*
X262342Y127665D01*
X262475D01*
X262542Y127732D01*
X262142Y128065D02*
X262009D01*
X262075D01*
Y127665D01*
X262142D01*
X262009D01*
X261342Y127932D02*
X261209D01*
X261142Y127865D01*
Y127665D01*
X261342D01*
X261409Y127732D01*
X261342Y127798D01*
X261142D01*
X260742Y128065D02*
Y127665D01*
X260942D01*
X261009Y127732D01*
Y127865D01*
X260942Y127932D01*
X260742D01*
X260542D02*
X260409D01*
X260342Y127865D01*
Y127665D01*
X260542D01*
X260609Y127732D01*
X260542Y127798D01*
X260342D01*
X260209Y127532D02*
Y127932D01*
X260009D01*
X259943Y127865D01*
Y127732D01*
X260009Y127665D01*
X260209D01*
X259743Y127998D02*
Y127932D01*
X259809D01*
X259676D01*
X259743D01*
Y127732D01*
X259676Y127665D01*
X259276D02*
X259409D01*
X259476Y127732D01*
Y127865D01*
X259409Y127932D01*
X259276D01*
X259209Y127865D01*
Y127798D01*
X259476D01*
X259076Y127932D02*
Y127665D01*
Y127798D01*
X259010Y127865D01*
X258943Y127932D01*
X258876D01*
X252756D02*
Y127732D01*
X252690Y127665D01*
X252623Y127732D01*
X252557Y127665D01*
X252490Y127732D01*
Y127932D01*
X252357D02*
Y127732D01*
X252290Y127665D01*
X252223Y127732D01*
X252157Y127665D01*
X252090Y127732D01*
Y127932D01*
X251957D02*
Y127732D01*
X251890Y127665D01*
X251823Y127732D01*
X251757Y127665D01*
X251690Y127732D01*
Y127932D01*
X251557Y127665D02*
Y127732D01*
X251490D01*
Y127665D01*
X251557D01*
X251224Y127532D02*
Y127932D01*
X251024D01*
X250957Y127865D01*
Y127732D01*
X251024Y127665D01*
X251224D01*
X250824Y127932D02*
Y127665D01*
Y127798D01*
X250757Y127865D01*
X250690Y127932D01*
X250624D01*
X250357Y127665D02*
X250224D01*
X250157Y127732D01*
Y127865D01*
X250224Y127932D01*
X250357D01*
X250424Y127865D01*
Y127732D01*
X250357Y127665D01*
X250024Y127532D02*
X249957D01*
X249891Y127598D01*
Y127932D01*
X249424Y127665D02*
X249558D01*
X249624Y127732D01*
Y127865D01*
X249558Y127932D01*
X249424D01*
X249358Y127865D01*
Y127798D01*
X249624D01*
X248958Y127932D02*
X249158D01*
X249224Y127865D01*
Y127732D01*
X249158Y127665D01*
X248958D01*
X248758Y127998D02*
Y127932D01*
X248824D01*
X248691D01*
X248758D01*
Y127732D01*
X248691Y127665D01*
X248491Y127932D02*
X248358Y127665D01*
X248225Y127932D01*
X248091Y128065D02*
Y127665D01*
X247891D01*
X247825Y127732D01*
Y127798D01*
Y127865D01*
X247891Y127932D01*
X248091D01*
X247691Y127665D02*
Y127732D01*
X247625D01*
Y127665D01*
X247691D01*
X247092Y127932D02*
X247292D01*
X247358Y127865D01*
Y127732D01*
X247292Y127665D01*
X247092D01*
X246892D02*
X246758D01*
X246692Y127732D01*
Y127865D01*
X246758Y127932D01*
X246892D01*
X246958Y127865D01*
Y127732D01*
X246892Y127665D01*
X246558D02*
Y127932D01*
X246492D01*
X246425Y127865D01*
Y127665D01*
Y127865D01*
X246359Y127932D01*
X246292Y127865D01*
Y127665D01*
X252806Y134665D02*
X252939D01*
X252872D01*
Y134332D01*
X252939Y134265D01*
X253006D01*
X253072Y134332D01*
X252406Y134265D02*
X252672D01*
X252406Y134532D01*
Y134598D01*
X252472Y134665D01*
X252606D01*
X252672Y134598D01*
M02*
